ffmpeg started on 2016-12-07 at 08:57:24
Report written to "Output/x264/results/ffmpeg/sintelslow4000k.log"
Command line:
Tools/ffmpeg/ffmpeg -benchmark -y -i Input/y4m/sintel.y4m -c:v libx264 -preset slow -b:v 4000k -an Output/x264/encoded/sintelslow4000k.mkv
ffmpeg version N-82227-gdb23fde Copyright (c) 2000-2016 the FFmpeg developers
  built with gcc 5.4.0 (Ubuntu 5.4.0-6ubuntu1~16.04.2) 20160609
  configuration: --prefix=/home/jaroslav/ffmpeg_build --pkg-config-flags=--static --extra-cflags=-I/home/jaroslav/ffmpeg_build/include --extra-ldflags=-L/home/jaroslav/ffmpeg_build/lib --bindir=/home/jaroslav/bin --enable-gpl --enable-libass --enable-libfdk-aac --enable-libfreetype --enable-libmp3lame --enable-libopus --enable-libtheora --enable-libvorbis --enable-libvpx --enable-libx264 --enable-libx265 --enable-nvenc --enable-libmfx --enable-libxvid --enable-libgsm --enable-libopencore-amrnb --enable-version3 --enable-nonfree
  libavutil      55. 35.100 / 55. 35.100
  libavcodec     57. 66.101 / 57. 66.101
  libavformat    57. 57.100 / 57. 57.100
  libavdevice    57.  2.100 / 57.  2.100
  libavfilter     6. 66.100 /  6. 66.100
  libswscale      4.  3.100 /  4.  3.100
  libswresample   2.  4.100 /  2.  4.100
  libpostproc    54.  2.100 / 54.  2.100
Input #0, yuv4mpegpipe, from 'Input/y4m/sintel.y4m':
  Duration: 00:00:20.83, start: 0.000000, bitrate: 2057307 kb/s
    Stream #0:0: Video: rawvideo (I420 / 0x30323449), yuv420p(progressive), 4096x1744, SAR 1:1 DAR 256:109, 24 fps, 24 tbr, 24 tbn, 24 tbc
[libx264 @ 0x35b5120] using SAR=1/1
[libx264 @ 0x35b5120] using cpu capabilities: MMX2 SSE2Fast SSSE3 SSE4.2 AVX FMA3 AVX2 LZCNT BMI2
[libx264 @ 0x35b5120] profile High, level 5.1
[libx264 @ 0x35b5120] 264 - core 148 - H.264/MPEG-4 AVC codec - Copyleft 2003-2016 - http://www.videolan.org/x264.html - options: cabac=1 ref=5 deblock=1:0:0 analyse=0x3:0x113 me=hex subme=8 psy=1 psy_rd=1.00:0.00 mixed_ref=1 me_range=16 chroma_me=1 trellis=2 8x8dct=1 cqm=0 deadzone=21,11 fast_pskip=1 chroma_qp_offset=-2 threads=6 lookahead_threads=1 sliced_threads=0 nr=0 decimate=1 interlaced=0 bluray_compat=0 constrained_intra=0 bframes=3 b_pyramid=2 b_adapt=1 b_bias=0 direct=3 weightb=1 open_gop=0 weightp=2 keyint=250 keyint_min=24 scenecut=40 intra_refresh=0 rc_lookahead=50 rc=abr mbtree=1 bitrate=4000 ratetol=1.0 qcomp=0.60 qpmin=0 qpmax=69 qpstep=4 ip_ratio=1.40 aq=1:1.00
Output #0, matroska, to 'Output/x264/encoded/sintelslow4000k.mkv':
  Metadata:
    encoder         : Lavf57.57.100
    Stream #0:0: Video: h264 (libx264) (H264 / 0x34363248), yuv420p, 4096x1744 [SAR 1:1 DAR 256:109], q=-1--1, 4000 kb/s, 24 fps, 1k tbn, 24 tbc
    Metadata:
      encoder         : Lavc57.66.101 libx264
    Side data:
      cpb: bitrate max/min/avg: 0/0/4000000 buffer size: 0 vbv_delay: -1
Stream mapping:
  Stream #0:0 -> #0:0 (rawvideo (native) -> h264 (libx264))
Press [q] to stop, [?] for help
frame=    9 fps=0.0 q=0.0 size=       0kB time=00:00:00.00 bitrate=N/A speed=   0x    frame=   18 fps= 17 q=0.0 size=       0kB time=00:00:00.00 bitrate=N/A speed=   0x    frame=   27 fps= 17 q=0.0 size=       0kB time=00:00:00.00 bitrate=N/A speed=   0x    frame=   36 fps= 17 q=0.0 size=       0kB time=00:00:00.00 bitrate=N/A speed=   0x    frame=   45 fps= 17 q=0.0 size=       0kB time=00:00:00.00 bitrate=N/A speed=   0x    frame=   54 fps= 17 q=0.0 size=       0kB time=00:00:00.00 bitrate=N/A speed=   0x    frame=   56 fps= 12 q=0.0 size=       0kB time=00:00:00.00 bitrate=N/A speed=   0x    frame=   57 fps=7.3 q=0.0 size=       0kB time=00:00:00.00 bitrate=N/A speed=   0x    frame=   58 fps=5.2 q=0.0 size=       0kB time=00:00:00.00 bitrate=N/A speed=   0x    frame=   59 fps=5.0 q=0.0 size=       0kB time=00:00:00.00 bitrate=N/A speed=   0x    frame=   64 fps=5.0 q=42.0 size=       1kB time=00:00:00.04 bitrate= 136.6kbits/s speed=0.00335x    frame=   67 fps=5.0 q=50.0 size=       1kB time=00:00:00.16 bitrate=  35.0kbits/s speed=0.0124x    frame=   70 fps=5.0 q=51.0 size=       1kB time=00:00:00.29 bitrate=  20.0kbits/s speed=0.0208x    frame=   75 fps=5.1 q=50.0 size=       1kB time=00:00:00.50 bitrate=  11.7kbits/s speed=0.0343x    frame=   79 fps=5.2 q=50.0 size=       1kB time=00:00:00.66 bitrate=   8.8kbits/s speed=0.0441x    frame=   83 fps=5.2 q=50.0 size=       1kB time=00:00:00.83 bitrate=   7.0kbits/s speed=0.0526x    frame=   88 fps=5.4 q=49.0 size=       1kB time=00:00:01.04 bitrate=   5.6kbits/s speed=0.0635x    frame=   92 fps=5.4 q=49.0 size=       1kB time=00:00:01.20 bitrate=   4.9kbits/s speed=0.0712x    frame=   96 fps=5.5 q=49.0 size=       1kB time=00:00:01.37 bitrate=   4.3kbits/s speed=0.0782x    frame=  100 fps=5.5 q=48.0 size=       1kB time=00:00:01.54 bitrate=   3.8kbits/s speed=0.0847x    frame=  106 fps=5.6 q=48.0 size=       1kB time=00:00:01.79 bitrate=   3.3kbits/s speed=0.0953x    frame=  110 fps=5.7 q=47.0 size=       1kB time=00:00:01.95 bitrate=   3.0kbits/s speed=0.101x    frame=  114 fps=5.7 q=47.0 size=       1kB time=00:00:02.12 bitrate=   2.8kbits/s speed=0.106x    frame=  117 fps=5.7 q=47.0 size=       1kB time=00:00:02.25 bitrate=   2.6kbits/s speed=0.109x    frame=  120 fps=5.7 q=47.0 size=       1kB time=00:00:02.37 bitrate=   2.5kbits/s speed=0.112x    frame=  124 fps=5.7 q=47.0 size=       1kB time=00:00:02.54 bitrate=   2.3kbits/s speed=0.117x    frame=  127 fps=5.7 q=47.0 size=       1kB time=00:00:02.66 bitrate=   2.2kbits/s speed=0.119x    frame=  131 fps=5.7 q=47.0 size=       1kB time=00:00:02.83 bitrate=   2.1kbits/s speed=0.123x    frame=  134 fps=5.7 q=47.0 size=       1kB time=00:00:02.95 bitrate=   2.0kbits/s speed=0.125x    frame=  137 fps=5.7 q=47.0 size=       1kB time=00:00:03.08 bitrate=   1.9kbits/s speed=0.128x    frame=  141 fps=5.7 q=47.0 size=       1kB time=00:00:03.25 bitrate=   1.8kbits/s speed=0.132x    frame=  143 fps=5.7 q=47.0 size=       1kB time=00:00:03.33 bitrate=   1.8kbits/s speed=0.132x    frame=  146 fps=5.7 q=47.0 size=       1kB time=00:00:03.45 bitrate=   1.7kbits/s speed=0.134x    frame=  150 fps=5.6 q=47.0 size=       1kB time=00:00:03.62 bitrate=   1.6kbits/s speed=0.136x    frame=  154 fps=5.7 q=47.0 size=       1kB time=00:00:03.79 bitrate=   1.5kbits/s speed=0.14x    frame=  161 fps=5.8 q=46.0 size=    2262kB time=00:00:04.08 bitrate=4537.6kbits/s speed=0.147x    frame=  163 fps=5.7 q=46.0 size=    2262kB time=00:00:04.16 bitrate=4446.2kbits/s speed=0.147x    frame=  170 fps=5.8 q=46.0 size=    2262kB time=00:00:04.45 bitrate=4156.0kbits/s speed=0.153x    frame=  174 fps=5.9 q=46.0 size=    2262kB time=00:00:04.62 bitrate=4006.0kbits/s speed=0.156x    frame=  180 fps=5.9 q=46.0 size=    2262kB time=00:00:04.87 bitrate=3800.6kbits/s speed=0.161x    frame=  185 fps=6.0 q=46.0 size=    2262kB time=00:00:05.08 bitrate=3645.1kbits/s speed=0.164x    frame=  188 fps=6.0 q=46.0 size=    2262kB time=00:00:05.20 bitrate=3557.6kbits/s speed=0.165x    frame=  192 fps=6.0 q=46.0 size=    2262kB time=00:00:05.37 bitrate=3447.1kbits/s speed=0.167x    frame=  196 fps=6.0 q=46.0 size=    2262kB time=00:00:05.54 bitrate=3343.3kbits/s speed=0.17x    frame=  200 fps=6.0 q=46.0 size=    2262kB time=00:00:05.70 bitrate=3246.1kbits/s speed=0.172x    frame=  205 fps=6.1 q=46.0 size=    2262kB time=00:00:05.91 bitrate=3131.4kbits/s speed=0.175x    frame=  208 fps=6.1 q=46.0 size=    2262kB time=00:00:06.04 bitrate=3066.6kbits/s speed=0.176x    frame=  212 fps=6.1 q=43.0 size=    2262kB time=00:00:06.20 bitrate=2984.7kbits/s speed=0.178x    frame=  221 fps=6.2 q=46.0 size=    3344kB time=00:00:06.58 bitrate=4160.4kbits/s speed=0.186x    frame=  224 fps=6.2 q=45.0 size=    3344kB time=00:00:06.70 bitrate=4082.9kbits/s speed=0.185x    frame=  229 fps=6.2 q=45.0 size=    3344kB time=00:00:06.91 bitrate=3959.5kbits/s speed=0.188x    frame=  233 fps=6.2 q=45.0 size=    3344kB time=00:00:07.08 bitrate=3866.7kbits/s speed=0.189x    frame=  237 fps=6.2 q=45.0 size=    3344kB time=00:00:07.25 bitrate=3777.7kbits/s speed=0.191x    frame=  241 fps=6.2 q=45.0 size=    3344kB time=00:00:07.41 bitrate=3692.6kbits/s speed=0.192x    frame=  244 fps=6.2 q=45.0 size=    3795kB time=00:00:07.54 bitrate=4121.9kbits/s speed=0.193x    frame=  251 fps=6.3 q=45.0 size=    3795kB time=00:00:07.83 bitrate=3968.8kbits/s speed=0.198x    frame=  256 fps=6.4 q=45.0 size=    3795kB time=00:00:08.04 bitrate=3865.7kbits/s speed= 0.2x    frame=  260 fps=6.4 q=45.0 size=    3795kB time=00:00:08.20 bitrate=3787.5kbits/s speed=0.201x    frame=  264 fps=6.4 q=45.0 size=    3795kB time=00:00:08.37 bitrate=3712.0kbits/s speed=0.202x    frame=  269 fps=6.4 q=45.0 size=    3795kB time=00:00:08.58 bitrate=3622.0kbits/s speed=0.204x    frame=  274 fps=6.4 q=44.0 size=    3795kB time=00:00:08.79 bitrate=3535.9kbits/s speed=0.206x    frame=  281 fps=6.5 q=44.0 size=    3795kB time=00:00:09.08 bitrate=3422.7kbits/s speed=0.209x    frame=  289 fps=6.5 q=44.0 size=    3795kB time=00:00:09.41 bitrate=3301.3kbits/s speed=0.213x    frame=  294 fps=6.6 q=44.0 size=    3795kB time=00:00:09.62 bitrate=3229.9kbits/s speed=0.215x    frame=  301 fps=6.6 q=44.0 size=    3795kB time=00:00:09.91 bitrate=3134.9kbits/s speed=0.218x    frame=  308 fps=6.7 q=43.0 size=    3795kB time=00:00:10.20 bitrate=3045.5kbits/s speed=0.221x    frame=  313 fps=6.7 q=43.0 size=    3795kB time=00:00:10.41 bitrate=2984.4kbits/s speed=0.223x    frame=  320 fps=6.8 q=43.0 size=    3795kB time=00:00:10.70 bitrate=2903.3kbits/s speed=0.226x    frame=  322 fps=6.7 q=43.0 size=    3795kB time=00:00:10.79 bitrate=2880.7kbits/s speed=0.224x    frame=  331 fps=6.8 q=43.0 size=    4971kB time=00:00:11.16 bitrate=3646.6kbits/s speed=0.229x    frame=  336 fps=6.8 q=43.0 size=    4971kB time=00:00:11.37 bitrate=3579.9kbits/s speed=0.231x    frame=  341 fps=6.9 q=42.0 size=    4971kB time=00:00:11.58 bitrate=3515.7kbits/s speed=0.233x    frame=  348 fps=6.9 q=42.0 size=    4971kB time=00:00:11.87 bitrate=3429.2kbits/s speed=0.235x    frame=  355 fps=7.0 q=42.0 size=    4971kB time=00:00:12.16 bitrate=3346.9kbits/s speed=0.239x    frame=  362 fps=7.0 q=42.0 size=    4971kB time=00:00:12.45 bitrate=3268.8kbits/s speed=0.242x    frame=  369 fps=7.1 q=42.0 size=    4971kB time=00:00:12.75 bitrate=3193.9kbits/s speed=0.245x    frame=  377 fps=7.2 q=41.0 size=    4971kB time=00:00:13.08 bitrate=3112.6kbits/s speed=0.249x    frame=  384 fps=7.2 q=41.0 size=    4971kB time=00:00:13.37 bitrate=3044.7kbits/s speed=0.252x    frame=  389 fps=7.3 q=41.0 size=    4971kB time=00:00:13.58 bitrate=2998.0kbits/s speed=0.253x    frame=  397 fps=7.3 q=40.0 size=    4971kB time=00:00:13.91 bitrate=2926.1kbits/s speed=0.256x    frame=  405 fps=7.4 q=40.0 size=    4971kB time=00:00:14.25 bitrate=2857.7kbits/s speed=0.26x    frame=  412 fps=7.4 q=40.0 size=    4971kB time=00:00:14.54 bitrate=2800.3kbits/s speed=0.262x    frame=  421 fps=7.5 q=39.0 size=    4971kB time=00:00:14.91 bitrate=2730.0kbits/s speed=0.265x    frame=  428 fps=7.5 q=39.0 size=    6083kB time=00:00:15.20 bitrate=3276.6kbits/s speed=0.267x    frame=  433 fps=7.5 q=39.0 size=    6083kB time=00:00:15.41 bitrate=3232.2kbits/s speed=0.269x    frame=  439 fps=7.6 q=39.0 size=    6083kB time=00:00:15.66 bitrate=3180.7kbits/s speed=0.27x    frame=  443 fps=7.6 q=39.0 size=    6083kB time=00:00:15.83 bitrate=3147.3kbits/s speed=0.271x    frame=  448 fps=7.6 q=39.0 size=    6083kB time=00:00:16.04 bitrate=3106.3kbits/s speed=0.271x    frame=  454 fps=7.6 q=38.0 size=    6083kB time=00:00:16.29 bitrate=3058.6kbits/s speed=0.273x    frame=  458 fps=7.6 q=38.0 size=    6083kB time=00:00:16.45 bitrate=3027.8kbits/s speed=0.274x    frame=  461 fps=7.6 q=39.0 size=    6083kB time=00:00:16.58 bitrate=3005.0kbits/s speed=0.273x    frame=  467 fps=7.6 q=39.0 size=    6083kB time=00:00:16.83 bitrate=2960.3kbits/s speed=0.273x    frame=  474 fps=7.6 q=36.0 size=    6083kB time=00:00:17.12 bitrate=2909.9kbits/s speed=0.276x    frame=  481 fps=7.7 q=39.0 size=    7087kB time=00:00:17.41 bitrate=3333.3kbits/s speed=0.278x    frame=  484 fps=7.7 q=39.0 size=    7087kB time=00:00:17.54 bitrate=3309.5kbits/s speed=0.277x    frame=  492 fps=7.7 q=39.0 size=    7087kB time=00:00:17.87 bitrate=3247.9kbits/s speed=0.279x    frame=  500 fps=7.7 q=39.0 size=    7087kB time=00:00:18.20 bitrate=3188.5kbits/s speed=0.282x    frame=  500 fps=7.2 q=-1.0 Lsize=    8471kB time=00:00:20.70 bitrate=3351.0kbits/s speed=0.299x    
video:8466kB audio:0kB subtitle:0kB other streams:0kB global headers:0kB muxing overhead: 0.054570%
bench: utime=222.180s
bench: maxrss=1814224kB
[libx264 @ 0x35b5120] frame I:8     Avg QP:34.07  size: 65266
[libx264 @ 0x35b5120] frame P:269   Avg QP:39.18  size: 21400
[libx264 @ 0x35b5120] frame B:223   Avg QP:38.24  size: 10719
[libx264 @ 0x35b5120] consecutive B-frames: 37.0%  8.4%  6.6% 48.0%
[libx264 @ 0x35b5120] mb I  I16..4: 39.4% 59.4%  1.2%
[libx264 @ 0x35b5120] mb P  I16..4: 18.5% 20.1%  0.1%  P16..4: 12.9%  0.7%  0.5%  0.0%  0.0%    skip:47.3%
[libx264 @ 0x35b5120] mb B  I16..4:  0.8%  1.0%  0.0%  B16..8: 22.9%  0.8%  0.1%  direct: 0.3%  skip:74.1%  L0:39.1% L1:60.1% BI: 0.9%
[libx264 @ 0x35b5120] final ratefactor: 36.02
[libx264 @ 0x35b5120] 8x8 transform intra:52.7% inter:92.4%
[libx264 @ 0x35b5120] direct mvs  spatial:98.7% temporal:1.3%
[libx264 @ 0x35b5120] coded y,uvDC,uvAC intra: 4.2% 15.7% 0.3% inter: 1.2% 1.6% 0.0%
[libx264 @ 0x35b5120] i16 v,h,dc,p: 39% 33%  5% 22%
[libx264 @ 0x35b5120] i8 v,h,dc,ddl,ddr,vr,hd,vl,hu: 11%  7% 73%  1%  2%  2%  2%  1%  2%
[libx264 @ 0x35b5120] i4 v,h,dc,ddl,ddr,vr,hd,vl,hu: 14% 14%  9%  9% 14%  9% 14%  6% 11%
[libx264 @ 0x35b5120] i8c dc,h,v,p: 91%  6%  3%  0%
[libx264 @ 0x35b5120] Weighted P-Frames: Y:1.1% UV:0.7%
[libx264 @ 0x35b5120] ref P L0: 61.8%  9.8% 15.9%  5.6%  4.9%  2.1%
[libx264 @ 0x35b5120] ref B L0: 87.5%  8.3%  3.6%  0.6%
[libx264 @ 0x35b5120] ref B L1: 97.6%  2.4%
[libx264 @ 0x35b5120] kb/s:3328.87
